<?xml version="1.0" encoding="UTF-8" standalone="no"?> <svg width="64" height="64" viewBox="0 0 64 64" fill="none" xmlns="http://www.w3.org/2000/svg">
<path d="M3.57007 51.7299L6.14007 54.4599H13.8601V39.7899H49.8601V54.0899H58.4801L60.5701 51.0899V26.9299L57.4601 24.3599H5.71007L3.68007 27.2499L3.57007 51.7299Z" fill="#78B9EB"/>
<path d="M56.8801 23.28H55.1501V15.2C55.1372 14.8772 54.9998 14.572 54.7668 14.3483C54.5337 14.1246 54.2232 13.9997 53.9001 14H51.1701V12C51.1583 11.7153 51.0488 11.4434 50.8601 11.23L50.8001 11.18L42.8001 3.18C42.5987 2.93905 42.3122 2.78503 42.0001 2.75H14.0801C13.7486 2.75 13.4307 2.8817 13.1962 3.11612C12.9618 3.35054 12.8301 3.66848 12.8301 4V14H10.1001C9.77708 13.9997 9.46649 14.1246 9.23345 14.3483C9.00042 14.572 8.86304 14.8772 8.85012 15.2V23.28H7.12012C5.99376 23.2826 4.91429 23.7313 4.11783 24.5277C3.32137 25.3242 2.87276 26.4036 2.87012 27.53V51.4C2.87276 52.5264 3.32137 53.6058 4.11783 54.4023C4.91429 55.1987 5.99376 55.6474 7.12012 55.65H12.8301V60C12.8301 60.3315 12.9618 60.6495 13.1962 60.8839C13.4307 61.1183 13.7486 61.25 14.0801 61.25H49.9201C50.2516 61.25 50.5696 61.1183 50.804 60.8839C51.0384 60.6495 51.1701 60.3315 51.1701 60V55.65H56.8801C58.0065 55.6474 59.0859 55.1987 59.8824 54.4023C60.6789 53.6058 61.1275 52.5264 61.1301 51.4V27.53C61.1275 26.4036 60.6789 25.3242 59.8824 24.5277C59.0859 23.7313 58.0065 23.2826 56.8801 23.28ZM52.6501 16.45V23.28H51.1701V16.45H52.6501ZM43.2101 7L46.9001 10.69H43.2101V7ZM15.3301 5.25H40.7101V12C40.714 12.1646 40.7506 12.3268 40.8177 12.4771C40.8849 12.6274 40.9814 12.7628 41.1015 12.8754C41.2215 12.9881 41.3628 13.0757 41.5171 13.1331C41.6714 13.1905 41.8356 13.2167 42.0001 13.21H48.7101V23.28H15.3301V5.25ZM11.3301 16.45H12.8101V23.28H11.3501L11.3301 16.45ZM48.6501 58.75H15.3301V40.75H48.6701L48.6501 58.75ZM58.6501 51.4C58.6475 51.8633 58.4623 52.3069 58.1347 52.6345C57.807 52.9622 57.3634 53.1474 56.9001 53.15H51.1701V40.72H53.9001C54.2316 40.72 54.5496 40.5883 54.784 40.3539C55.0184 40.1195 55.1501 39.8015 55.1501 39.47C55.1501 39.1385 55.0184 38.8205 54.784 38.5861C54.5496 38.3517 54.2316 38.22 53.9001 38.22H10.1001C9.7686 38.22 9.45065 38.3517 9.21623 38.5861C8.98181 38.8205 8.85012 39.1385 8.85012 39.47C8.85012 39.8015 8.98181 40.1195 9.21623 40.3539C9.45065 40.5883 9.7686 40.72 10.1001 40.72H12.8301V53.15H7.12012C6.6568 53.1474 6.2132 52.9622 5.88558 52.6345C5.55796 52.3069 5.37274 51.8633 5.37012 51.4V27.53C5.37274 27.0667 5.55796 26.6231 5.88558 26.2955C6.2132 25.9678 6.6568 25.7826 7.12012 25.78H56.8801C57.3434 25.7826 57.787 25.9678 58.1147 26.2955C58.4423 26.6231 58.6275 27.0667 58.6301 27.53L58.6501 51.4Z" fill="#006DF0"/>
</svg>
